<?xml version="1.0" encoding="utf-8"?>
<!-- Generator: Adobe Illustrator 21.1.0, SVG Export Plug-In . SVG Version: 6.00 Build 0)  -->
<svg version="1.1" id="Layer_1" xmlns="http://www.w3.org/2000/svg" xmlns:xlink="http://www.w3.org/1999/xlink" x="0px" y="0px"
	 viewBox="0 0 25.5 25.5" style="enable-background:new 0 0 25.5 25.5;" xml:space="preserve">
<style type="text/css">
	.st0{fill:#005EA5;}
	.st1{fill:#FFFFFF;}
</style>
<rect class="st0" width="25.5" height="25.5"/>
<path id="pinterest" class="st1" d="M13,4.9c-4.3,0-6.6,2.8-6.6,5.8c0,1.4,0.8,3.2,2,3.7c0.2,0.1,0.3,0,0.3-0.1
	c0-0.1,0.2-0.8,0.3-1.1c0-0.1,0-0.2-0.1-0.3c-0.4-0.5-0.7-1.4-0.7-2.2c0-2.1,1.7-4.2,4.5-4.2c2.5,0,4.2,1.6,4.2,3.9
	c0,2.6-1.4,4.4-3.2,4.4c-1,0-1.7-0.8-1.5-1.7c0.3-1.1,0.8-2.4,0.8-3.2c0-0.7-0.4-1.4-1.3-1.4c-1,0-1.8,1-1.8,2.3
	c0,0.9,0.3,1.4,0.3,1.4s-1,4-1.2,4.8c-0.3,1.3,0,3.3,0.1,3.5c0,0.1,0.1,0.1,0.2,0c0.1-0.1,1.3-1.8,1.6-3.1c0.1-0.5,0.6-2.3,0.6-2.3
	c0.3,0.6,1.3,1.1,2.3,1.1c3,0,5.2-2.7,5.2-6C19.2,7.3,16.5,4.9,13,4.9"/>
</svg>
