<?xml version="1.0" encoding="utf-8"?>
<!-- Generator: Adobe Illustrator 21.1.0, SVG Export Plug-In . SVG Version: 6.00 Build 0)  -->
<svg version="1.1" id="Layer_1" xmlns="http://www.w3.org/2000/svg" xmlns:xlink="http://www.w3.org/1999/xlink" x="0px" y="0px"
	 viewBox="0 0 25.5 25.5" style="enable-background:new 0 0 25.5 25.5;" xml:space="preserve">
<style type="text/css">
	.st0{fill:#005EA5;}
	.st1{fill:#FFFFFF;}
</style>
<rect class="st0" width="25.5" height="25.5"/>
<path id="pinterest" class="st1" d="M13,3.4c-5.2,0-7.9,3.3-7.9,7c0,1.7,0.9,3.8,2.4,4.4c0.2,0.1,0.4,0.1,0.4-0.2
	c0-0.2,0.2-0.9,0.3-1.3c0-0.1,0-0.2-0.1-0.3c-0.5-0.6-0.9-1.6-0.9-2.6c0-2.5,2-5,5.4-5c2.9,0,5,1.9,5,4.7c0,3.1-1.6,5.3-3.8,5.3
	c-1.2,0-2.1-0.9-1.8-2.1c0.3-1.4,1-2.8,1-3.8c0-0.9-0.5-1.6-1.5-1.6c-1.2,0-2.2,1.2-2.2,2.8c0,1,0.4,1.7,0.4,1.7S8.6,17.1,8.4,18
	c-0.4,1.5,0.1,4,0.1,4.2c0,0.1,0.2,0.2,0.2,0.1c0.1-0.2,1.6-2.2,2-3.7c0.1-0.5,0.7-2.7,0.7-2.7c0.4,0.7,1.5,1.3,2.8,1.3
	c3.6,0,6.2-3.2,6.2-7.1C20.4,6.2,17.2,3.4,13,3.4"/>
</svg>
