<?xml version="1.0" encoding="utf-8"?>
<!-- Generator: Adobe Illustrator 21.1.0, SVG Export Plug-In . SVG Version: 6.00 Build 0)  -->
<svg version="1.1" id="Layer_1" xmlns="http://www.w3.org/2000/svg" xmlns:xlink="http://www.w3.org/1999/xlink" x="0px" y="0px"
	 viewBox="0 0 25.5 25.5" style="enable-background:new 0 0 25.5 25.5;" xml:space="preserve">
<style type="text/css">
	.st0{fill:#005EA5;}
	.st1{fill:#FFFFFF;}
</style>
<rect class="st0" width="25.5" height="25.5"/>
<g id="google_x2B_">
	<path class="st1" d="M9.5,12.1c0,0.6,0,1.2,0,1.9c1,0,2,0,3.1,0c-0.4,2.3-3.6,3.1-5.2,1.6c-1.7-1.4-1.6-4.2,0.2-5.5
		c1.2-1,3-0.7,4.2,0.2c0.5-0.4,0.9-1,1.4-1.5c-1-0.9-2.3-1.5-3.6-1.4C6.7,7.3,4.1,9.8,4,12.6c-0.2,2.3,1.4,4.6,3.4,5.5
		c2.1,0.9,4.9,0.3,6.2-1.6c0.9-1.2,1.1-2.8,1-4.2C12.9,12.1,11.2,12.1,9.5,12.1z"/>
	<path class="st1" d="M19.5,12.1c0-0.5,0-1,0-1.6c-0.5,0-1,0-1.5,0c0,0.5,0,1,0,1.6c-0.5,0-1,0-1.5,0c0,0.5,0,1,0,1.6
		c0.5,0,1,0,1.5,0c0,0.5,0,1,0,1.6c0.5,0,1,0,1.5,0c0-0.5,0-1,0-1.6c0.5,0,1,0,1.5,0c0-0.5,0-1,0-1.6C20.6,12.1,20,12.1,19.5,12.1z"
		/>
</g>
</svg>
