<?xml version="1.0" encoding="utf-8"?>
<!-- Generator: Adobe Illustrator 21.1.0, SVG Export Plug-In . SVG Version: 6.00 Build 0)  -->
<svg version="1.1" id="Layer_1" xmlns="http://www.w3.org/2000/svg" xmlns:xlink="http://www.w3.org/1999/xlink" x="0px" y="0px"
	 viewBox="0 0 25.5 25.5" style="enable-background:new 0 0 25.5 25.5;" xml:space="preserve">
<style type="text/css">
	.st0{fill:#005EA5;}
	.st1{fill:#FFFFFF;}
</style>
<rect class="st0" width="25.5" height="25.5"/>
<g id="youtube">
	<g>
		<path id="YouTube" class="st1" d="M18.3,17.2h-1v-0.6c0-0.3,0.2-0.5,0.5-0.5h0.1c0.3,0,0.5,0.2,0.5,0.5L18.3,17.2z M14.4,15.9
			c-0.3,0-0.5,0.2-0.5,0.4v3c0,0.2,0.2,0.4,0.5,0.4s0.5-0.2,0.5-0.4v-3C14.8,16.1,14.6,15.9,14.4,15.9z M20.7,14.3v5.6
			c0,1.4-1.2,2.5-2.6,2.5H7.5c-1.4,0-2.6-1.1-2.6-2.5v-5.6c0-1.4,1.2-2.5,2.6-2.5h10.7C19.6,11.8,20.7,12.9,20.7,14.3z M8.2,20.5
			v-5.9h1.3v-0.9H6v0.9h1.1v5.9H8.2z M12.1,15.4H11v3.2c0,0.5,0,0.7,0,0.8c-0.1,0.3-0.5,0.5-0.7,0c0-0.1,0-0.3,0-0.8v-3.2H9.3v3.1
			c0,0.5,0,0.8,0,1c0,0.3,0,0.6,0.3,0.8c0.5,0.4,1.4-0.1,1.7-0.6v0.7h0.9V15.4L12.1,15.4z M15.7,19.1v-2.6c0-1-0.7-1.6-1.8-0.8v-1.9
			h-1.1v6.8l0.9,0l0.1-0.4C14.9,21.1,15.7,20.3,15.7,19.1z M19.1,18.7h-0.8c0,0,0,0.1,0,0.1v0.5c0,0.3-0.2,0.4-0.4,0.4h-0.2
			c-0.3,0-0.4-0.2-0.4-0.4v0v-0.5v-0.6h1.9v-0.7c0-0.5,0-1-0.1-1.3c-0.1-1-1.5-1.1-2.1-0.6c-0.2,0.1-0.4,0.4-0.5,0.6
			c-0.1,0.3-0.1,0.6-0.1,1.1v1.6C16.3,21.3,19.5,21,19.1,18.7z M14.9,10.2c0.1,0.1,0.1,0.3,0.3,0.3c0.1,0.1,0.3,0.1,0.4,0.1
			c0.2,0,0.3,0,0.4-0.1c0.1-0.1,0.2-0.2,0.3-0.4l0,0.4h1.2V5.3h-1v4.1c0,0.2-0.2,0.4-0.4,0.4c-0.2,0-0.4-0.2-0.4-0.4V5.3h-1v3.5
			c0,0.4,0,0.7,0,0.9C14.8,9.9,14.8,10.1,14.9,10.2z M11.1,7.2c0-0.5,0-0.9,0.1-1.2c0.1-0.3,0.2-0.5,0.4-0.7
			c0.2-0.2,0.5-0.3,0.8-0.3c0.3,0,0.5,0.1,0.7,0.2c0.2,0.1,0.4,0.3,0.5,0.4c0.1,0.2,0.2,0.4,0.2,0.6C14,6.5,14,6.7,14,7.1v1.3
			c0,0.5,0,0.8-0.1,1.1c0,0.2-0.1,0.4-0.2,0.6c-0.1,0.2-0.3,0.3-0.5,0.4c-0.2,0.1-0.4,0.1-0.7,0.1c-0.3,0-0.5,0-0.7-0.1
			c-0.2-0.1-0.3-0.2-0.4-0.4c-0.1-0.2-0.2-0.4-0.2-0.6c0-0.2-0.1-0.6-0.1-1V7.2L11.1,7.2z M12.1,9.3c0,0.3,0.2,0.5,0.5,0.5
			s0.5-0.2,0.5-0.5V6.5c0-0.3-0.2-0.5-0.5-0.5s-0.5,0.2-0.5,0.5V9.3z M8.7,10.7h1.2v-4l1.4-3.4H10L9.3,5.8L8.5,3.3H7.2l1.5,3.5V10.7
			z"/>
	</g>
</g>
</svg>
