<?xml version="1.0" encoding="utf-8"?>
<!-- Generator: Adobe Illustrator 21.1.0, SVG Export Plug-In . SVG Version: 6.00 Build 0)  -->
<svg version="1.1" id="Layer_1" xmlns="http://www.w3.org/2000/svg" xmlns:xlink="http://www.w3.org/1999/xlink" x="0px" y="0px"
	 viewBox="0 0 25.5 25.5" style="enable-background:new 0 0 25.5 25.5;" xml:space="preserve">
<style type="text/css">
	.st0{fill:#005EA5;}
	.st1{fill:#FFFFFF;}
</style>
<rect class="st0" width="25.5" height="25.5"/>
<g id="facebook">
	<g>
		<path id="Facebook" class="st1" d="M10.2,6.9c0,0.5,0,2.6,0,2.6H8.3v3.2h1.9v9.6h4v-9.6h2.7c0,0,0.3-1.5,0.4-3.2c-0.3,0-3,0-3,0
			s0-1.9,0-2.2c0-0.3,0.4-0.8,0.9-0.8c0.4,0,1.3,0,2.2,0c0-0.4,0-2,0-3.4c-1.1,0-2.4,0-2.9,0C10.2,3.2,10.2,6.4,10.2,6.9z"/>
	</g>
</g>
</svg>
