<?xml version="1.0" encoding="utf-8"?>
<!-- Generator: Adobe Illustrator 21.1.0, SVG Export Plug-In . SVG Version: 6.00 Build 0)  -->
<svg version="1.1" id="Layer_1" xmlns="http://www.w3.org/2000/svg" xmlns:xlink="http://www.w3.org/1999/xlink" x="0px" y="0px"
	 viewBox="0 0 25.5 25.5" style="enable-background:new 0 0 25.5 25.5;" xml:space="preserve">
<style type="text/css">
	.st0{fill:#005EA5;}
	.st1{fill:#FFFFFF;}
</style>
<rect class="st0" width="25.5" height="25.5"/>
<g>
	<g>
		<path id="LinkedIn" class="st1" d="M22.8,14.9v7.4h-4.3v-6.9c0-1.7-0.6-2.9-2.2-2.9c-1.2,0-1.9,0.8-2.2,1.6
			c-0.1,0.3-0.1,0.7-0.1,1v7.2H9.7c0,0,0.1-11.7,0-12.9H14v1.8c0,0,0,0,0,0h0v0c0.6-0.9,1.6-2.1,3.9-2.1C20.7,9.1,22.8,11,22.8,14.9
			z M5.2,3.2c-1.5,0-2.4,1-2.4,2.2c0,1.2,0.9,2.2,2.4,2.2h0c1.5,0,2.4-1,2.4-2.2C7.6,4.2,6.7,3.2,5.2,3.2z M3,22.4h4.3V9.4H3V22.4z"
			/>
	</g>
</g>
</svg>
