<?xml version="1.0" encoding="utf-8"?>
<!-- Generator: Adobe Illustrator 23.0.1, SVG Export Plug-In . SVG Version: 6.00 Build 0)  -->
<svg version="1.1" xmlns="http://www.w3.org/2000/svg" xmlns:xlink="http://www.w3.org/1999/xlink" x="0px" y="0px"
	 viewBox="0 0 50 50" style="enable-background:new 0 0 50 50;" xml:space="preserve">
<style type="text/css">
	.st0{fill:#0B0B0B;}
	.st1{fill:#FFFFFF;}
	.st2{fill-rule:evenodd;clip-rule:evenodd;fill:#FFFFFF;}
	.st3{opacity:0.5;fill-rule:evenodd;clip-rule:evenodd;fill:#FFFFFF;}
	.st4{fill:#005EA5;}
</style>
<g id="Layer_1">
	<rect x="0" class="st4" width="50" height="50"/>
	<g>
		<path class="st1" d="M11.54,33.18c-1.89-2.74-2.89-5.95-2.89-9.28c0-9.02,7.34-16.35,16.35-16.35s16.35,7.34,16.35,16.35
			c0,3.23-0.94,6.36-2.73,9.04l-2.5-1.66c1.46-2.19,2.22-4.74,2.22-7.38c0-7.36-5.99-13.35-13.35-13.35s-13.35,5.99-13.35,13.35
			c0,2.73,0.82,5.35,2.36,7.58L11.54,33.18z"/>
		<g>
			<path class="st1" d="M12.24,40.92L12.24,40.92c-2.7,0.33-5.18-1.62-5.51-4.32l-1.19-9.83c-0.33-2.7,1.62-5.18,4.32-5.51l0,0
				c2.7-0.33,5.18,1.62,5.51,4.32l1.19,9.83C16.89,38.12,14.94,40.6,12.24,40.92z"/>
			<path class="st1" d="M37.76,40.92L37.76,40.92c2.7,0.33,5.18-1.62,5.51-4.32l1.19-9.83c0.33-2.7-1.62-5.18-4.32-5.51l0,0
				c-2.7-0.33-5.18,1.62-5.51,4.32l-1.19,9.83C33.11,38.12,35.06,40.6,37.76,40.92z"/>
		</g>
	</g>
</g>
<g id="Layer_2">
</g>
</svg>
