<svg xmlns="http://www.w3.org/2000/svg" viewBox="0 0 25.5 25.5"><path fill="#005ea5" d="M0 0h25.5v25.5H0z"/><path d="M17.1 4.9H8.7c-1.2 0-1.5.9-1.5 1.4v13.4c0 .6.3.8.5.9.2.1.7.1 1-.2 0 0 4-4.6 4-4.7.1-.1.1-.1.2-.1h2.6c1.1 0 1.2-.8 1.4-1.2.1-.4 1.2-5.8 1.5-7.5.3-1.3 0-2-1.3-2zm-.2 9.5c.1-.4 1.2-5.8 1.5-7.5m-1.8.3L16.3 9c0 .2-.3.4-.5.4h-3.3c-.4 0-.6.3-.6.6v.4c0 .4.3.6.6.6h2.8c.3 0 .5.3.5.6-.1.3-.3 1.7-.4 1.8 0 .1-.2.4-.5.4h-2.3c-.4 0-.5.1-.8.4S9 17.6 9 17.6h-.1V7.1c0-.2.2-.5.5-.5h6.8c.3 0 .5.3.4.6z" fill="#fff"/></svg>