<svg xmlns="http://www.w3.org/2000/svg" viewBox="0 0 25.5 25.5"><path fill="#005ea5" d="M0 0h25.5v25.5H0z"/><path d="M13 4.9c-4.3 0-6.6 2.8-6.6 5.8 0 1.4.8 3.2 2 3.7.2.1.3 0 .3-.1s.2-.8.3-1.1c0-.1 0-.2-.1-.3-.4-.5-.7-1.4-.7-2.2 0-2.1 1.7-4.2 4.5-4.2 2.5 0 4.2 1.6 4.2 3.9 0 2.6-1.4 4.4-3.2 4.4-1 0-1.7-.8-1.5-1.7.3-1.1.8-2.4.8-3.2 0-.7-.4-1.4-1.3-1.4-1 0-1.8 1-1.8 2.3 0 .9.3 1.4.3 1.4L9 17c-.3 1.3 0 3.3.1 3.5 0 .1.1.1.2 0s1.3-1.8 1.6-3.1c.1-.5.6-2.3.6-2.3.3.6 1.3 1.1 2.3 1.1 3 0 5.2-2.7 5.2-6 .2-2.9-2.5-5.3-6-5.3" fill="#fff"/></svg>