<?xml version="1.0" encoding="utf-8"?>
<!-- Generator: Adobe Illustrator 21.1.0, SVG Export Plug-In . SVG Version: 6.00 Build 0)  -->
<svg version="1.1" id="Layer_1" xmlns="http://www.w3.org/2000/svg" xmlns:xlink="http://www.w3.org/1999/xlink" x="0px" y="0px"
	 viewBox="0 0 25.5 25.5" style="enable-background:new 0 0 25.5 25.5;" xml:space="preserve">
<style type="text/css">
	.st0{fill:#005EA5;}
	.st1{fill:#FFFFFF;}
</style>
<rect class="st0" width="25.5" height="25.5"/>
<g id="youtube">
	<g>
		<path id="YouTube" class="st1" d="M17.3,16.5h-0.9V16c0-0.2,0.2-0.4,0.4-0.4h0.1c0.2,0,0.4,0.2,0.4,0.4L17.3,16.5z M14.1,15.4
			c-0.2,0-0.4,0.1-0.4,0.3v2.5c0,0.2,0.2,0.3,0.4,0.3s0.4-0.1,0.4-0.3v-2.5C14.5,15.6,14.3,15.4,14.1,15.4z M19.4,14v4.7
			c0,1.1-1,2-2.2,2H8.3c-1.2,0-2.2-0.9-2.2-2V14c0-1.1,1-2,2.2-2h8.9C18.4,12,19.4,12.9,19.4,14z M8.9,19.2v-4.9H10v-0.7H7.1v0.7H8
			v4.9H8.9z M12.2,15h-0.9v2.6c0,0.4,0,0.6,0,0.6c-0.1,0.2-0.4,0.4-0.5,0c0-0.1,0-0.3,0-0.6V15H9.8v2.6c0,0.4,0,0.7,0,0.8
			c0,0.2,0,0.5,0.2,0.7c0.4,0.3,1.2-0.1,1.4-0.5v0.5h0.7V15L12.2,15z M15.2,18v-2.2c0-0.8-0.6-1.3-1.5-0.7v-1.6h-0.9v5.6l0.8,0
			l0.1-0.4C14.5,19.7,15.2,19.1,15.2,18z M18,17.8h-0.7c0,0,0,0.1,0,0.1v0.4c0,0.2-0.2,0.4-0.4,0.4h-0.1c-0.2,0-0.4-0.2-0.4-0.4v0
			v-0.4v-0.5h1.6v-0.6c0-0.4,0-0.9-0.1-1.1c-0.1-0.8-1.2-0.9-1.8-0.5c-0.2,0.1-0.3,0.3-0.4,0.5c-0.1,0.2-0.1,0.5-0.1,0.9v1.3
			C15.7,19.9,18.4,19.6,18,17.8z M14.5,10.7c0.1,0.1,0.1,0.2,0.2,0.3C14.8,11,15,11,15.1,11s0.2,0,0.4-0.1c0.1-0.1,0.2-0.2,0.3-0.3
			l0,0.4h1V6.6h-0.8V10c0,0.2-0.2,0.3-0.3,0.3s-0.3-0.2-0.3-0.3V6.6h-0.8v2.9c0,0.4,0,0.6,0,0.8C14.4,10.4,14.5,10.5,14.5,10.7z
			 M11.4,8.2c0-0.4,0-0.7,0.1-1c0.1-0.2,0.2-0.4,0.4-0.6s0.4-0.2,0.7-0.2c0.2,0,0.4,0.1,0.6,0.1s0.3,0.2,0.4,0.4s0.2,0.3,0.2,0.5
			c0,0.2,0.1,0.4,0.1,0.7v1.1c0,0.4,0,0.7-0.1,0.9s-0.1,0.4-0.2,0.5c-0.1,0.2-0.2,0.3-0.4,0.4c-0.2,0.1-0.4,0.1-0.6,0.1
			c-0.2,0-0.4,0-0.6-0.1c-0.2-0.1-0.3-0.2-0.4-0.3c-0.1-0.1-0.2-0.3-0.2-0.5c0-0.2-0.1-0.5-0.1-0.9V8.2L11.4,8.2z M12.2,9.9
			c0,0.2,0.2,0.4,0.4,0.4S13,10.2,13,9.9V7.6c0-0.2-0.2-0.4-0.4-0.4s-0.4,0.2-0.4,0.4V9.9z M9.4,11.1h1V7.7l1.1-2.9h-1.1L9.8,7
			L9.2,4.9h-1l1.2,2.9V11.1z"/>
	</g>
</g>
</svg>
