<?xml version="1.0" encoding="utf-8"?>
<!-- Generator: Adobe Illustrator 21.1.0, SVG Export Plug-In . SVG Version: 6.00 Build 0)  -->
<svg version="1.1" id="Layer_1" xmlns="http://www.w3.org/2000/svg" xmlns:xlink="http://www.w3.org/1999/xlink" x="0px" y="0px"
	 viewBox="0 0 25.5 25.5" style="enable-background:new 0 0 25.5 25.5;" xml:space="preserve">
<style type="text/css">
	.st0{fill:#005EA5;}
	.st1{fill:#FFFFFF;}
</style>
<rect class="st0" width="25.5" height="25.5"/>
<g id="instagram">
	<path id="Camera" class="st1" d="M19.8,3.2c0,0-14.3,0-14.3,0c-1.2,0-2.2,1-2.2,2.2l0,0c0,0,0,14.7,0,14.7c0,1.2,1,2.2,2.2,2.2
		c0,0,14.7,0,14.7,0c1.2,0,2.2-1,2.2-2.2c0,0,0-14.7,0-14.7C22.3,4.3,21,3.3,19.8,3.2z M12.8,9.3c1.9,0,3.5,1.6,3.5,3.5
		c0,1.9-1.6,3.5-3.5,3.5c-1.9,0-3.5-1.6-3.5-3.5C9.3,10.9,10.9,9.3,12.8,9.3z M19.8,18.5c0,0.7-0.6,1.3-1.3,1.3H7.1
		c-0.7,0-1.3-0.6-1.3-1.3v-7.3h1.5c-0.1,0.5-0.2,1-0.2,1.6c0,3.2,2.6,5.7,5.7,5.7c3.2,0,5.7-2.6,5.7-5.7c0-0.6-0.1-1.1-0.2-1.6h1.5
		V18.5C19.8,18.5,19.8,18.5,19.8,18.5z M19.8,6.4v1.9h0c0,0.3-0.3,0.6-0.6,0.6v0h-1.9c-0.3,0-0.6-0.3-0.6-0.6h0V6.4h0c0,0,0,0,0,0
		c0-0.4,0.3-0.6,0.6-0.6h1.9v0C19.5,5.8,19.8,6.1,19.8,6.4C19.8,6.4,19.8,6.4,19.8,6.4L19.8,6.4z"/>
</g>
</svg>
