<?xml version="1.0" encoding="utf-8"?>
<!-- Generator: Adobe Illustrator 21.1.0, SVG Export Plug-In . SVG Version: 6.00 Build 0)  -->
<svg version="1.1" id="Layer_1" xmlns="http://www.w3.org/2000/svg" xmlns:xlink="http://www.w3.org/1999/xlink" x="0px" y="0px"
	 viewBox="0 0 25.5 25.5" style="enable-background:new 0 0 25.5 25.5;" xml:space="preserve">
<style type="text/css">
	.st0{fill:#005EA5;}
	.st1{fill:#FFFFFF;}
</style>
<rect class="st0" width="25.5" height="25.5"/>
<g>
	<path class="st1" d="M9.4,11.9c0,0.7,0,1.4,0,2.1c1.1,0,2.3,0,3.4,0c-0.5,2.6-4,3.5-5.8,1.8C5.1,14.2,5.2,11,7.2,9.5
		c1.3-1.1,3.3-0.8,4.7,0.2c0.6-0.5,1.1-1.1,1.5-1.7c-1.1-1-2.6-1.7-4-1.6c-3.2-0.1-6,2.7-6.1,5.9c-0.2,2.6,1.5,5.2,3.8,6.1
		c2.4,1,5.4,0.3,7-1.8c1-1.4,1.2-3.1,1.1-4.8C13.2,11.9,11.3,11.9,9.4,11.9z"/>
	<path class="st1" d="M20.6,11.9c0-0.6,0-1.2,0-1.8c-0.6,0-1.1,0-1.7,0c0,0.6,0,1.2,0,1.8c-0.6,0-1.1,0-1.7,0c0,0.6,0,1.2,0,1.8
		c0.6,0,1.1,0,1.7,0c0,0.6,0,1.2,0,1.8c0.6,0,1.1,0,1.7,0c0-0.6,0-1.2,0-1.8c0.6,0,1.1,0,1.7,0c0-0.6,0-1.2,0-1.8
		C21.9,11.9,21.2,11.9,20.6,11.9z"/>
</g>
</svg>
