<?xml version="1.0" encoding="utf-8"?>
<!-- Generator: Adobe Illustrator 21.1.0, SVG Export Plug-In . SVG Version: 6.00 Build 0)  -->
<svg version="1.1" id="Layer_1" xmlns="http://www.w3.org/2000/svg" xmlns:xlink="http://www.w3.org/1999/xlink" x="0px" y="0px"
	 viewBox="0 0 25.5 25.5" style="enable-background:new 0 0 25.5 25.5;" xml:space="preserve">
<style type="text/css">
	.st0{fill:#005EA5;}
	.st1{fill:#FFFFFF;}
</style>
<rect class="st0" width="25.5" height="25.5"/>
<g id="facebook">
	<g>
		<path id="Facebook" class="st1" d="M10.7,8c0,0.4,0,2.2,0,2.2H9.1v2.7h1.6v7.9H14v-7.9h2.2c0,0,0.2-1.3,0.3-2.7
			c-0.3,0-2.5,0-2.5,0s0-1.6,0-1.8s0.4-0.6,0.7-0.6c0.4,0,1.1,0,1.8,0c0-0.4,0-1.6,0-2.8c-0.9,0-2,0-2.4,0C10.6,4.9,10.7,7.6,10.7,8
			z"/>
	</g>
</g>
</svg>
