<svg xmlns="http://www.w3.org/2000/svg" viewBox="0 0 25.5 25.5"><path fill="#005ea5" d="M0 0h25.5v25.5H0z"/><path d="M18.8 4.6H6c-1.1 0-2 .9-2 2v13.1c0 1.1.9 2 2 2h13.1c1.1 0 2-.9 2-2V6.6c-.1-1.1-1.3-2-2.3-2zm-6.3 5.3c1.7 0 3.1 1.4 3.1 3.1 0 1.7-1.4 3.1-3.1 3.1-1.7 0-3.1-1.4-3.1-3.1 0-1.7 1.4-3.1 3.1-3.1zm6.3 8.3c0 .6-.5 1.1-1.1 1.1H7.4c-.6 0-1.1-.5-1.1-1.1v-6.5h1.3c-.1.5-.2.9-.2 1.4 0 2.8 2.3 5.1 5.1 5.1s5.1-2.3 5.1-5.1c0-.5-.1-1-.2-1.4h1.3v6.5h.1zm0-10.8v1.7c0 .3-.3.5-.6.6h-1.7c-.3 0-.6-.2-.6-.6V7.4c0-.3.3-.6.6-.6h1.7c.3 0 .6.3.6.6z" fill="#fff"/></svg>