<?xml version="1.0" encoding="utf-8"?>
<!-- Generator: Adobe Illustrator 21.1.0, SVG Export Plug-In . SVG Version: 6.00 Build 0)  -->
<svg version="1.1" id="Layer_1" xmlns="http://www.w3.org/2000/svg" xmlns:xlink="http://www.w3.org/1999/xlink" x="0px" y="0px"
	 viewBox="0 0 25.5 25.5" style="enable-background:new 0 0 25.5 25.5;" xml:space="preserve">
<style type="text/css">
	.st0{fill:#005EA5;}
	.st1{fill:#FFFFFF;}
</style>
<rect class="st0" width="25.5" height="25.5"/>
<path id="rss" class="st1" d="M3.3,13.4c2.4,0,4.6,0.9,6.3,2.6c1.7,1.7,2.6,3.9,2.6,6.3h3.7c0-6.9-5.6-12.6-12.5-12.6
	C3.3,9.7,3.3,13.4,3.3,13.4z M3.3,6.9c8.4,0,15.3,6.9,15.3,15.4h3.7c0-10.5-8.5-19-19-19C3.3,3.3,3.3,6.9,3.3,6.9z M8.3,19.8
	c0,1.4-1.1,2.5-2.5,2.5s-2.5-1.1-2.5-2.5c0-1.4,1.1-2.5,2.5-2.5S8.3,18.4,8.3,19.8z"/>
</svg>
