<?xml version="1.0" encoding="utf-8"?>
<!-- Generator: Adobe Illustrator 21.1.0, SVG Export Plug-In . SVG Version: 6.00 Build 0)  -->
<svg version="1.1" id="Layer_1" xmlns="http://www.w3.org/2000/svg" xmlns:xlink="http://www.w3.org/1999/xlink" x="0px" y="0px"
	 viewBox="0 0 25.5 25.5" style="enable-background:new 0 0 25.5 25.5;" xml:space="preserve">
<style type="text/css">
	.st0{fill:#005EA5;}
	.st1{fill:#FFFFFF;}
</style>
<rect class="st0" width="25.5" height="25.5"/>
<g id="Layer_1_1_">
	<g id="foursquare">
		<g>
			<path class="st1" d="M17.9,3.4c0,0-8.7,0-10.1,0c-1.4,0-1.8,1-1.8,1.7s0,16,0,16c0,0.7,0.4,1,0.6,1.1c0.2,0.1,0.8,0.2,1.2-0.3
				c0,0,4.8-5.5,4.8-5.6c0.1-0.1,0.1-0.1,0.2-0.1c0.2,0,2.1,0,3.1,0c1.3,0,1.5-0.9,1.6-1.5c0.1-0.4,1.4-6.9,1.8-9
				C19.8,4.2,19.4,3.4,17.9,3.4z M17.7,14.7c0.1-0.4,1.4-6.9,1.8-9 M17.4,6.1l-0.4,2.2c0,0.2-0.3,0.5-0.6,0.5c-0.3,0-3.9,0-3.9,0
				c-0.4,0-0.7,0.3-0.7,0.7v0.5c0,0.4,0.3,0.7,0.8,0.7c0,0,3,0,3.3,0c0.3,0,0.6,0.3,0.5,0.7c-0.1,0.3-0.4,2-0.4,2.2
				c0,0.2-0.2,0.5-0.6,0.5c-0.3,0-2.7,0-2.7,0c-0.5,0-0.6,0.1-1,0.5c-0.3,0.4-3.3,4-3.3,4c0,0-0.1,0-0.1,0V6c0-0.3,0.2-0.6,0.6-0.6
				c0,0,7.8,0,8.1,0C17.2,5.4,17.4,5.7,17.4,6.1z"/>
		</g>
	</g>
</g>
</svg>
