<svg xmlns="http://www.w3.org/2000/svg" viewBox="0 0 25.5 25.5"><path fill="#005ea5" d="M0 0h25.5v25.5H0z"/><path d="M17.3 16.5h-.9V16c0-.2.2-.4.4-.4h.1c.2 0 .4.2.4.4v.5zm-3.2-1.1c-.2 0-.4.1-.4.3v2.5c0 .2.2.3.4.3s.4-.1.4-.3v-2.5c0-.1-.2-.3-.4-.3zm5.3-1.4v4.7c0 1.1-1 2-2.2 2H8.3c-1.2 0-2.2-.9-2.2-2V14c0-1.1 1-2 2.2-2h8.9c1.2 0 2.2.9 2.2 2zM8.9 19.2v-4.9H10v-.7H7.1v.7H8v4.9h.9zm3.3-4.2h-.9v3.2c-.1.2-.4.4-.5 0V15h-1V18.4c0 .2 0 .5.2.7.4.3 1.2-.1 1.4-.5v.5h.7V15h.1zm3 3v-2.2c0-.8-.6-1.3-1.5-.7v-1.6h-.9v5.6h.8l.1-.4c.8 1 1.5.4 1.5-.7zm2.8-.2h-.7v.5c0 .2-.2.4-.4.4h-.1c-.2 0-.4-.2-.4-.4v-.9H18v-.6c0-.4 0-.9-.1-1.1-.1-.8-1.2-.9-1.8-.5-.2.1-.3.3-.4.5-.1.2-.1.5-.1.9v1.3c.1 2 2.8 1.7 2.4-.1zm-3.5-7.1c.1.1.1.2.2.3h.4c.1 0 .2 0 .4-.1l.3-.3v.4h1V6.6H16V10c0 .2-.2.3-.3.3s-.3-.2-.3-.3V6.6h-.8v3.7c-.2.1-.1.2-.1.4zm-3.1-2.5c0-.4 0-.7.1-1 .1-.2.2-.4.4-.6s.4-.2.7-.2c.2 0 .4.1.6.1s.3.2.4.4.2.3.2.5.1.4.1.7v1.1c0 .4 0 .7-.1.9s-.1.4-.2.5c-.1.2-.2.3-.4.4-.2.1-.4.1-.6.1-.2 0-.4 0-.6-.1-.2-.1-.3-.2-.4-.3-.1-.1-.2-.3-.2-.5s-.1-.5-.1-.9V8.2h.1zm.8 1.7c0 .2.2.4.4.4s.4-.1.4-.4V7.6c0-.2-.2-.4-.4-.4s-.4.2-.4.4v2.3zm-2.8 1.2h1V7.7l1.1-2.9h-1.1L9.8 7l-.6-2.1h-1l1.2 2.9v3.3z" fill="#fff"/></svg>