<?xml version="1.0" encoding="utf-8"?>
<!-- Generator: Adobe Illustrator 21.1.0, SVG Export Plug-In . SVG Version: 6.00 Build 0)  -->
<svg version="1.1" id="Layer_1" xmlns="http://www.w3.org/2000/svg" xmlns:xlink="http://www.w3.org/1999/xlink" x="0px" y="0px"
	 viewBox="0 0 25.5 25.5" style="enable-background:new 0 0 25.5 25.5;" xml:space="preserve">
<style type="text/css">
	.st0{fill:#005EA5;}
	.st1{fill:#FFFFFF;}
</style>
<rect class="st0" width="25.5" height="25.5"/>
<path id="rss" class="st1" d="M4.4,13.4c2.1,0,4,0.9,5.5,2.4c1.5,1.5,2.3,3.6,2.3,5.8h3.2c0-6.4-4.9-11.5-11-11.5
	C4.4,10,4.4,13.4,4.4,13.4z M4.4,7.4c7.4,0,13.4,6.3,13.4,14.1H21c0-9.7-7.4-17.5-16.6-17.5C4.4,4.1,4.4,7.4,4.4,7.4z M8.9,19.2
	c0,1.3-1,2.3-2.2,2.3s-2.2-1-2.2-2.3c0-1.3,1-2.3,2.2-2.3S8.9,18,8.9,19.2z"/>
</svg>
