<?xml version="1.0" encoding="utf-8"?>
<!-- Generator: Adobe Illustrator 21.1.0, SVG Export Plug-In . SVG Version: 6.00 Build 0)  -->
<svg version="1.1" id="Layer_1" xmlns="http://www.w3.org/2000/svg" xmlns:xlink="http://www.w3.org/1999/xlink" x="0px" y="0px"
	 viewBox="0 0 25.5 25.5" style="enable-background:new 0 0 25.5 25.5;" xml:space="preserve">
<style type="text/css">
	.st0{fill:#005EA5;}
	.st1{fill:#FFFFFF;}
</style>
<rect class="st0" width="25.5" height="25.5"/>
<g id="foursquare_1_">
	<g id="foursquare">
		<g>
			<path class="st1" d="M17.1,4.9c0,0-7.3,0-8.4,0c-1.2,0-1.5,0.9-1.5,1.4s0,13.4,0,13.4c0,0.6,0.3,0.8,0.5,0.9
				c0.2,0.1,0.7,0.1,1-0.2c0,0,4-4.6,4-4.7c0.1-0.1,0.1-0.1,0.2-0.1c0.2,0,1.8,0,2.6,0c1.1,0,1.2-0.8,1.4-1.2
				c0.1-0.4,1.2-5.8,1.5-7.5C18.7,5.6,18.4,4.9,17.1,4.9z M16.9,14.4c0.1-0.4,1.2-5.8,1.5-7.5 M16.6,7.2L16.3,9
				c0,0.2-0.3,0.4-0.5,0.4c-0.2,0-3.3,0-3.3,0c-0.4,0-0.6,0.3-0.6,0.6v0.4c0,0.4,0.3,0.6,0.6,0.6c0,0,2.5,0,2.8,0
				c0.3,0,0.5,0.3,0.5,0.6c-0.1,0.3-0.3,1.7-0.4,1.8c0,0.1-0.2,0.4-0.5,0.4c-0.3,0-2.3,0-2.3,0c-0.4,0-0.5,0.1-0.8,0.4
				S9,17.6,9,17.6c0,0-0.1,0-0.1,0V7.1c0-0.2,0.2-0.5,0.5-0.5c0,0,6.5,0,6.8,0C16.5,6.6,16.7,6.9,16.6,7.2z"/>
		</g>
	</g>
</g>
</svg>
